# xmcd
#
# Track frame offsets: 
#        150
#        22781
#        42574
#        62964
#        84277
#        102661
#        121406
#        142042
#        162813
#        181989
#        201204
#        218857
#        239307
#        257058
#
# Disc length: 3675 seconds
#
# Revision: 0
# Processed by: cddbd v1.5.2PL0 Copyright (c) Steve Scherf et al.
# Submitted via: ExactAudioCopy v1.0b3
#
DISCID=c70e590e
DTITLE=香西かおり - 20周年記念 香西かおり シングルコレクション Disc 2 UPCH-20002-5
DYEAR=1900
DGENRE=Blues
TTITLE0=越前恋歌
TTITLE1=静の舞
TTITLE2=ごむたいな
TTITLE3=捨てられた猫のように
TTITLE4=宇治川哀歌
TTITLE5=京の送り火
TTITLE6=すき
TTITLE7=あぁ人恋し(アコースティックヴァージョン)  
TTITLE8=雨降橋 
TTITLE9=蛍の海
TTITLE10=人形
TTITLE11=なみだ発なみだ行 
TTITLE12=母から母へ 
TTITLE13=せめて乾杯
EXTD=
EXTT0=
EXTT1=
EXTT2=
EXTT3=
EXTT4=
EXTT5=
EXTT6=
EXTT7=
EXTT8=
EXTT9=
EXTT10=
EXTT11=
EXTT12=
EXTT13=
PLAYORDER=
